<svg xmlns="http://www.w3.org/2000/svg" viewBox="0 0 800 700">
    <!-- Styles -->
    <defs>
        <marker id="arrowhead" markerWidth="10" markerHeight="7" refX="9" refY="3.5" orient="auto">
            <polygon points="0 0, 10 3.5, 0 7" fill="#666"/>
        </marker>
    </defs>

    <!-- Participant boxes -->
    <rect x="50" y="20" width="120" height="40" rx="5" fill="#808080" stroke="#666" stroke-width="2"/>
    <text x="110" y="45" text-anchor="middle" fill="white" font-family="Arial, sans-serif" font-size="14">User</text>

    <rect x="250" y="20" width="120" height="40" rx="5" fill="#808080" stroke="#666" stroke-width="2"/>
    <text x="310" y="45" text-anchor="middle" fill="white" font-family="Arial, sans-serif" font-size="14">Contract</text>

    <rect x="450" y="20" width="120" height="40" rx="5" fill="#808080" stroke="#666" stroke-width="2"/>
    <text x="510" y="45" text-anchor="middle" fill="white" font-family="Arial, sans-serif" font-size="14">Level 0 Validator</text>

    <rect x="650" y="20" width="120" height="40" rx="5" fill="#808080" stroke="#666" stroke-width="2"/>
    <text x="710" y="45" text-anchor="middle" fill="white" font-family="Arial, sans-serif" font-size="14">Level 1/2 Validators</text>

    <!-- Lifelines -->
    <line x1="110" y1="60" x2="110" y2="680" stroke="#999" stroke-width="2" stroke-dasharray="5,5"/>
    <line x1="310" y1="60" x2="310" y2="680" stroke="#999" stroke-width="2" stroke-dasharray="5,5"/>
    <line x1="510" y1="60" x2="510" y2="680" stroke="#999" stroke-width="2" stroke-dasharray="5,5"/>
    <line x1="710" y1="60" x2="710" y2="680" stroke="#999" stroke-width="2" stroke-dasharray="5,5"/>

    <!-- Initial Request Flow -->
    <line x1="110" y1="100" x2="310" y2="100" stroke="#666" stroke-width="2" marker-end="url(#arrowhead)"/>
    <text x="210" y="95" text-anchor="middle" font-family="Arial, sans-serif" font-size="12">Submit Request</text>

    <!-- Level 0 Validation -->
    <line x1="310" y1="160" x2="510" y2="160" stroke="#666" stroke-width="2" marker-end="url(#arrowhead)"/>
    <text x="410" y="155" text-anchor="middle" font-family="Arial, sans-serif" font-size="12">Level 0 Validation Request</text>

    <line x1="510" y1="200" x2="310" y2="200" stroke="#666" stroke-width="2" marker-end="url(#arrowhead)"/>
    <text x="410" y="195" text-anchor="middle" font-family="Arial, sans-serif" font-size="12">Level 0 Result</text>

    <!-- Security Check Box -->
    <rect x="80" y="240" width="680" height="100" fill="#f8f9fa" stroke="#666" stroke-width="1"/>
    <text x="100" y="260" font-family="Arial, sans-serif" font-size="12" fill="#666">[If Security Required]</text>

    <!-- Level 1 Validation -->
    <line x1="310" y1="280" x2="710" y2="280" stroke="#666" stroke-width="2" marker-end="url(#arrowhead)"/>
    <text x="510" y="275" text-anchor="middle" font-family="Arial, sans-serif" font-size="12">Level 1 Parallel Validation (x validators)</text>

    <line x1="710" y1="320" x2="310" y2="320" stroke="#666" stroke-width="2" marker-end="url(#arrowhead)"/>
    <text x="510" y="315" text-anchor="middle" font-family="Arial, sans-serif" font-size="12">Level 1 Results</text>

    <!-- No Consensus Box -->
    <rect x="100" y="380" width="640" height="180" fill="#f0f0f0" stroke="#666" stroke-width="1"/>
    <text x="120" y="400" font-family="Arial, sans-serif" font-size="12" fill="#666">[If No Consensus in Level 1]</text>

    <!-- Level 2 Validation -->
    <line x1="310" y1="440" x2="710" y2="440" stroke="#666" stroke-width="2" marker-end="url(#arrowhead)"/>
    <text x="510" y="435" text-anchor="middle" font-family="Arial, sans-serif" font-size="12">Level 2 Validation (y validators, y > x)</text>

    <line x1="710" y1="480" x2="310" y2="480" stroke="#666" stroke-width="2" marker-end="url(#arrowhead)"/>
    <text x="510" y="475" text-anchor="middle" font-family="Arial, sans-serif" font-size="12">Level 2 Results</text>

    <!-- Final Result -->
    <line x1="310" y1="600" x2="110" y2="600" stroke="#666" stroke-width="2" marker-end="url(#arrowhead)"/>
    <text x="210" y="595" text-anchor="middle" font-family="Arial, sans-serif" font-size="12">Return Final Result</text>

    <!-- Notes -->
    <rect x="20" y="620" width="760" height="60" fill="#f8f9fa" stroke="#666" stroke-width="1"/>
    <text x="30" y="640" font-family="Arial, sans-serif" font-size="12" fill="#666">Level 0: Single validator execution</text>
    <text x="30" y="660" font-family="Arial, sans-serif" font-size="12" fill="#666">Level 1: Multiple validators (x) working in parallel</text>
    <text x="30" y="680" font-family="Arial, sans-serif" font-size="12" fill="#666">Level 2: Extended validation with larger validator set (y > x) if Level 1 consensus fails</text>
</svg>